<svg width="82" height="78" viewBox="0 0 82 78" fill="none" xmlns="http://www.w3.org/2000/svg">
<path d="M48.8901 67.3192C50.0556 66.6463 50.9028 65.5324 51.2454 64.2226C51.5879 62.9127 51.3978 61.5142 50.7168 60.3347L48.1491 55.8872C47.4681 54.7077 46.352 53.8438 45.0463 53.4855C43.7407 53.1273 42.3524 53.304 41.187 53.9769C32.3982 59.0511 27.2628 50.1563 24.6951 45.7088C22.1273 41.2614 16.9919 32.3666 25.7807 27.2924C26.9461 26.6195 27.7933 25.5056 28.1359 24.1958C28.4784 22.8859 28.2883 21.4874 27.6073 20.3079L25.0396 15.8605C24.3586 14.6809 23.2425 13.817 21.9369 13.4588C20.6312 13.1005 19.243 13.2773 18.0775 13.9501C7.09156 20.2929 3.06772 28.5459 15.9063 50.783C28.7449 73.0201 37.9042 73.6619 48.8901 67.3192Z" stroke="#F08C17" stroke-width="4" stroke-linecap="round" stroke-linejoin="round"/>
<path d="M72.2766 48.9537C74.6109 40.0091 73.3103 30.4611 68.6605 22.4075C64.0108 14.3539 56.3923 8.45357 47.4789 6.00275M58.8224 45.262C59.5178 42.6055 59.6846 39.8318 59.3135 37.0992C58.9423 34.3667 58.0403 31.7289 56.6591 29.3365C55.2779 26.9442 53.4445 24.8442 51.2636 23.1564C49.0827 21.4687 46.5972 20.2264 43.9489 19.5003M45.4405 41.5434C45.9072 39.7535 45.6467 37.8431 44.7164 36.2317C43.786 34.6202 42.2618 33.4395 40.4784 32.9487" stroke="#F08C17" stroke-width="4" stroke-linecap="round" stroke-linejoin="round"/>
</svg>
