<svg width="60" height="60" viewBox="0 0 60 60" fill="none" xmlns="http://www.w3.org/2000/svg">
<g clip-path="url(#clip0_307_41)">
<path d="M30 0C14.79 0 2.23219 11.3222 0.27375 25.9959C0.271875 26.0109 0.27 26.025 0.268125 26.04C0.215625 26.4347 0.16875 26.8303 0.13125 27.2297C0.113438 27.4144 0.104062 27.6009 0.0890625 27.7866C0.069375 28.0491 0.0478125 28.3116 0.0346875 28.5759C0.013125 29.0466 0 29.5219 0 30C0 46.5684 13.4316 60 30 60C46.5684 60 60 46.5684 60 30C60 13.4316 46.5684 0 30 0ZM31.2769 54.8456C30.6019 55.5834 29.4947 56.1713 28.7691 55.4738C28.1569 54.87 28.6763 54.1238 28.7691 53.2678C28.8863 52.2694 28.4297 51.0694 29.3934 50.7591C30.1781 50.5163 30.7697 51.0609 31.2769 51.7078C32.0503 52.6641 32.0991 53.9306 31.2769 54.8456ZM40.7306 46.7531C39.6244 47.3231 38.85 47.2162 37.6153 47.3841C35.3147 47.6737 33.4959 48.8091 31.6781 47.3841C30.8653 46.7325 30.7612 46.0237 30.1312 45.1894C29.115 43.9106 28.8609 41.5528 27.3094 42.075C26.3175 42.4088 26.3475 43.4016 25.7587 44.2641C24.9994 45.3478 25.1897 46.8825 23.8791 47.07C22.9659 47.1994 22.4737 46.6406 21.7031 46.1325C20.8387 45.5569 20.6681 44.8688 19.8263 44.2641C18.9506 43.6181 18.2419 43.6144 17.3381 43.0134C16.6875 42.5794 16.5487 41.7909 15.7697 41.7628C15.0656 41.7422 14.5612 42.0872 14.2097 42.6966C13.5525 43.8347 13.3266 47.19 11.4084 47.07C9.98719 46.9734 6.94781 43.7803 5.78906 43.0134C5.40938 42.7575 5.05781 42.4969 4.70344 42.2981C2.98875 38.7769 1.99312 34.8431 1.89375 30.6872C2.46938 30.2044 3.05531 29.9662 3.59906 29.2875C4.46812 28.2281 4.05 26.9372 5.1675 26.1609C5.99813 25.5947 6.66937 25.6856 7.66969 25.5441C9.10312 25.3359 10.005 25.1484 11.4084 25.5441C12.7762 25.9275 13.2984 26.7122 14.5266 27.4116C15.8531 28.1709 16.4503 29.0672 17.9578 29.2875C19.0509 29.4422 19.8009 28.4428 20.7591 28.9716C21.5316 29.4009 22.0772 29.9709 22.0162 30.8475C21.9225 31.9894 19.6519 31.2638 19.5234 32.4056C19.3519 33.8663 21.8784 32.2237 23.2659 32.715C24.1791 33.0478 25.3669 32.9906 25.4456 33.9656C25.5216 35.0494 23.9381 34.7503 22.9547 35.2172C21.8653 35.7244 21.2944 36.1509 20.1384 36.4631C19.0838 36.7425 17.9709 35.8744 17.3381 36.7716C16.8412 37.4672 17.0166 38.1675 17.3381 38.9606C18.0759 40.7709 20.4778 40.2281 22.3275 39.5766C23.6241 39.1191 23.8659 37.9584 25.1372 37.3931C26.4853 36.7922 27.5316 36.1416 28.8694 36.7716C29.9738 37.2928 29.6653 38.6934 30.75 39.2681C31.9247 39.8944 33.03 38.5847 34.1841 39.2681C35.0813 39.8016 35.0156 40.6941 35.7356 41.4497C36.5738 42.3328 37.0575 43.0453 38.2369 43.3247C39.4425 43.605 40.1794 42.3206 41.3559 42.6956C42.2606 42.9909 43.0012 43.3331 43.2187 44.2631C43.5609 45.5944 41.9475 46.1231 40.7306 46.7531ZM42.9741 31.7259C41.8922 32.8134 40.9528 33.1688 39.4388 33.5006C38.0953 33.7959 36.2109 34.8488 35.9025 33.5006C35.6672 32.4244 36.8672 32.04 37.6772 31.2891C38.5762 30.45 39.4153 30.3675 40.3266 29.5153C41.1422 28.7634 41.0353 27.6113 42.1013 27.3038C43.1409 27.0038 44.1469 27.2859 44.7497 28.1916C45.6113 29.4731 44.0681 30.6384 42.9741 31.7259ZM56.2397 27.4866C55.7784 27.9628 55.8066 28.4653 55.335 28.9322C54.8128 29.4375 54.0872 29.22 53.7056 29.8397C53.37 30.3806 53.5837 30.8306 53.5237 31.4662C53.4853 31.8291 51.72 32.6438 51.3553 31.8272C51.1547 31.3763 51.6187 30.9769 51.3553 30.5588C51.1087 30.1828 50.835 30.3759 50.5125 30.7284C50.1759 31.0922 49.7888 31.6266 49.3678 31.8272C48.8156 32.0831 49.1841 29.7178 48.9975 28.9322C48.8606 28.3106 49.0069 27.9197 49.1831 27.3047C49.4175 26.4516 50.0625 26.1741 50.2659 25.3125C50.4478 24.5569 50.2969 24.0984 50.2659 23.3222C50.2294 22.4728 50.2519 21.9844 50.0897 21.1528C49.9097 20.2744 49.8534 19.7231 49.3669 18.9816C48.975 18.3966 48.7163 18.0431 48.0975 17.7141C47.9475 17.6316 47.8069 17.5772 47.6738 17.535C47.355 17.4291 47.0559 17.415 46.6444 17.3541C45.8119 17.2303 45.2175 17.7591 44.475 17.3541C44.0419 17.115 43.9069 16.815 43.575 16.4475C43.1962 16.0406 43.0959 15.7078 42.6684 15.3619C42.3488 15.1031 42.1509 14.9522 41.7638 14.8172C41.0231 14.5706 40.5056 14.7403 39.7706 15.0009C39.0488 15.2522 38.7787 15.6638 38.1403 16.0838C37.6509 16.3678 37.3031 16.4316 36.8766 16.8094C36.6178 17.0363 35.3859 17.9128 34.8825 17.8922C34.3725 17.8725 34.0847 17.5706 33.6281 17.5341C33.5672 17.5266 33.5063 17.5266 33.4369 17.5341C33.4369 17.5341 33.4369 17.5341 33.4322 17.5341C32.9887 17.5678 32.7797 17.7862 32.3578 17.8922C31.32 18.1509 30.6591 17.7844 29.6344 18.0769C28.9669 18.2644 28.7034 18.795 28.0125 18.7997C27.2241 18.8044 26.9578 18.1031 26.2012 17.8922C25.7869 17.7816 25.5431 17.7713 25.1166 17.7141C24.4144 17.6128 24.0122 17.6025 23.3109 17.535H23.3063C23.2913 17.5406 22.7522 17.5894 22.6613 17.535C22.2656 17.2669 21.9844 17.0466 21.495 16.8103C20.9559 16.545 20.6334 16.4091 20.0447 16.2628L20.0691 15.9056C20.0691 15.9056 20.0691 15.1116 19.9556 14.7741C19.8478 14.4356 19.7306 14.4356 19.9556 13.7559C20.1881 13.0791 20.5922 12.6478 20.5922 12.6478C20.8706 12.4341 21.0759 12.3619 21.3131 12.1041C21.7912 11.5988 21.9853 11.1684 22.0387 10.4737C22.1016 9.5625 20.9091 9.19219 21.1294 8.3025C21.3253 7.52812 21.9769 7.38375 22.5797 6.85594C23.31 6.22781 23.9559 6.14531 24.5672 5.41031C25.0369 4.85437 25.4212 4.50562 25.4766 3.78094C25.5262 3.165 25.2609 2.77969 24.9422 2.33906C26.5837 2.03906 28.2722 1.875 30 1.875C43.9866 1.875 55.5844 12.0872 57.7547 25.4606C57.5644 25.7906 57.7537 26.2069 57.5016 26.5791C57.1678 27.0881 56.6587 27.0469 56.2397 27.4866Z" fill="#F08C17"/>
</g>
<defs>
<clipPath id="clip0_307_41">
<rect width="60" height="60" fill="white"/>
</clipPath>
</defs>
</svg>
